<svg width="59" height="30" viewBox="0 0 59 30" fill="none" xmlns="http://www.w3.org/2000/svg">
<g clip-path="url(#clip0_44_12735)">
<path d="M37.2696 11.0103H30.648L36.7863 1.34363H29.053L21.803 15.8436H27.5063L21.803 29.377L37.2696 11.0103Z" fill="#FFDD09"/>
<path d="M30.9863 1.34363H29.053L21.803 15.8436H23.7363L30.9863 1.34363Z" fill="white"/>
<path d="M34.8537 11.0098L23.2537 24.7848L21.3204 29.3765L36.7871 11.0098H34.8537Z" fill="#FD9808"/>
<path d="M21.8035 29.8594C21.7068 29.8594 21.6102 29.8594 21.5618 29.8111C21.3685 29.6661 21.2718 29.4244 21.3685 29.2311L26.7818 16.3261H21.8035C21.6585 16.3261 21.4652 16.2294 21.3685 16.0844C21.2718 15.9394 21.2718 15.7461 21.3685 15.6011L28.6185 1.10106C28.7152 0.956061 28.8602 0.859375 29.0535 0.859375H36.7868C36.9802 0.859375 37.1252 0.956061 37.2218 1.10106C37.3185 1.24606 37.3185 1.43938 37.2218 1.58438L31.5668 10.5261H37.2702C37.4635 10.5261 37.6085 10.6227 37.7052 10.8161C37.8018 11.0094 37.7535 11.2027 37.6568 11.3477L22.1902 29.7144C22.0935 29.8111 21.9485 29.8594 21.8035 29.8594ZM22.5768 15.3594H27.5068C27.6518 15.3594 27.7968 15.4561 27.8935 15.5527C27.9902 15.6977 27.9902 15.8427 27.9418 15.9877L23.4952 26.621L36.2552 11.4927H30.6485C30.4552 11.4927 30.3102 11.396 30.2135 11.251C30.1168 11.106 30.1168 10.9127 30.2135 10.7677L35.9168 1.82606H29.3435L22.5768 15.3594Z" fill="#FE7B1C"/>
</g>
<rect x="0.527344" y="4.85938" width="58" height="20" rx="10" fill="#FF5555"/>
<path d="M10.6516 11.5866H12.1893V16.3097C12.1893 16.84 12.0626 17.304 11.8093 17.7017C11.5584 18.0994 11.2068 18.4096 10.7546 18.6321C10.3024 18.8523 9.77569 18.9624 9.17436 18.9624C8.57067 18.9624 8.04273 18.8523 7.59055 18.6321C7.13838 18.4096 6.78681 18.0994 6.53587 17.7017C6.28492 17.304 6.15945 16.84 6.15945 16.3097V11.5866H7.69709V16.1783C7.69709 16.4553 7.75746 16.7015 7.8782 16.9169C8.0013 17.1323 8.17412 17.3016 8.39666 17.4247C8.6192 17.5478 8.87843 17.6094 9.17436 17.6094C9.47266 17.6094 9.73189 17.5478 9.95206 17.4247C10.1746 17.3016 10.3462 17.1323 10.467 16.9169C10.5901 16.7015 10.6516 16.4553 10.6516 16.1783V11.5866ZM13.426 20.9048V13.4048H14.9174V14.321H14.9849C15.0512 14.1742 15.1471 14.0251 15.2725 13.8736C15.4004 13.7197 15.5661 13.5919 15.7697 13.4901C15.9757 13.3859 16.2314 13.3338 16.5368 13.3338C16.9345 13.3338 17.3014 13.438 17.6376 13.6463C17.9738 13.8523 18.2425 14.1636 18.4437 14.5803C18.6449 14.9946 18.7456 15.5142 18.7456 16.1392C18.7456 16.7476 18.6473 17.2614 18.4508 17.6804C18.2567 18.0971 17.9915 18.4131 17.6554 18.6286C17.3216 18.8416 16.9475 18.9482 16.5332 18.9482C16.2396 18.9482 15.9899 18.8996 15.7839 18.8026C15.5803 18.7055 15.4134 18.5836 15.2832 18.4368C15.153 18.2876 15.0536 18.1373 14.9849 17.9858H14.9387V20.9048H13.426ZM14.9068 16.1321C14.9068 16.4564 14.9518 16.7393 15.0417 16.9808C15.1317 17.2223 15.2619 17.4105 15.4324 17.5455C15.6028 17.678 15.81 17.7443 16.0538 17.7443C16.3 17.7443 16.5083 17.6768 16.6788 17.5419C16.8493 17.4046 16.9783 17.2152 17.0659 16.9737C17.1558 16.7299 17.2008 16.4493 17.2008 16.1321C17.2008 15.8172 17.157 15.5402 17.0694 15.3011C16.9818 15.062 16.8528 14.875 16.6824 14.7401C16.5119 14.6051 16.3024 14.5376 16.0538 14.5376C15.8076 14.5376 15.5993 14.6027 15.4288 14.733C15.2607 14.8632 15.1317 15.0478 15.0417 15.2869C14.9518 15.526 14.9068 15.8078 14.9068 16.1321ZM22.6554 13.4048V14.5412H19.3706V13.4048H22.6554ZM20.1163 12.098H21.6291V17.1832C21.6291 17.3229 21.6504 17.4318 21.693 17.5099C21.7356 17.5857 21.7948 17.639 21.8706 17.6697C21.9487 17.7005 22.0386 17.7159 22.1404 17.7159C22.2115 17.7159 22.2825 17.71 22.3535 17.6982C22.4245 17.6839 22.479 17.6733 22.5169 17.6662L22.7548 18.7919C22.679 18.8156 22.5725 18.8428 22.4352 18.8736C22.2979 18.9067 22.131 18.9268 21.9345 18.9339C21.5699 18.9482 21.2503 18.8996 20.9757 18.7884C20.7034 18.6771 20.4915 18.5043 20.34 18.2699C20.1885 18.0355 20.1139 17.7396 20.1163 17.3821V12.098ZM26.0467 18.9659C25.4951 18.9659 25.0181 18.8487 24.6156 18.6143C24.2155 18.3776 23.9065 18.0485 23.6887 17.6271C23.4709 17.2034 23.362 16.7121 23.362 16.1534C23.362 15.59 23.4709 15.0975 23.6887 14.6761C23.9065 14.2524 24.2155 13.9233 24.6156 13.6889C25.0181 13.4522 25.4951 13.3338 26.0467 13.3338C26.5983 13.3338 27.0742 13.4522 27.4743 13.6889C27.8767 13.9233 28.1868 14.2524 28.4047 14.6761C28.6225 15.0975 28.7314 15.59 28.7314 16.1534C28.7314 16.7121 28.6225 17.2034 28.4047 17.6271C28.1868 18.0485 27.8767 18.3776 27.4743 18.6143C27.0742 18.8487 26.5983 18.9659 26.0467 18.9659ZM26.0538 17.794C26.3047 17.794 26.5143 17.723 26.6824 17.581C26.8504 17.4366 26.9771 17.2401 27.0623 16.9915C27.1499 16.7429 27.1937 16.46 27.1937 16.1428C27.1937 15.8255 27.1499 15.5426 27.0623 15.294C26.9771 15.0455 26.8504 14.849 26.6824 14.7045C26.5143 14.5601 26.3047 14.4879 26.0538 14.4879C25.8005 14.4879 25.5874 14.5601 25.4146 14.7045C25.2441 14.849 25.1151 15.0455 25.0275 15.294C24.9423 15.5426 24.8997 15.8255 24.8997 16.1428C24.8997 16.46 24.9423 16.7429 25.0275 16.9915C25.1151 17.2401 25.2441 17.4366 25.4146 17.581C25.5874 17.723 25.8005 17.794 26.0538 17.794ZM32.0153 18.8594V17.7514L34.604 15.3544C34.8242 15.1413 35.0089 14.9496 35.158 14.7791C35.3095 14.6087 35.4244 14.4418 35.5025 14.2784C35.5806 14.1127 35.6197 13.9339 35.6197 13.7422C35.6197 13.5291 35.5711 13.3456 35.4741 13.1918C35.377 13.0355 35.2444 12.916 35.0763 12.8331C34.9083 12.7479 34.7177 12.7053 34.5046 12.7053C34.2821 12.7053 34.0879 12.7502 33.9222 12.8402C33.7565 12.9302 33.6287 13.0592 33.5387 13.2273C33.4487 13.3954 33.4038 13.5954 33.4038 13.8274H31.9442C31.9442 13.3516 32.052 12.9384 32.2674 12.5881C32.4828 12.2377 32.7847 11.9666 33.1729 11.7749C33.5612 11.5831 34.0086 11.4872 34.5153 11.4872C35.0361 11.4872 35.4895 11.5795 35.8754 11.7642C36.2636 11.9465 36.5655 12.1998 36.7809 12.5241C36.9963 12.8485 37.104 13.2202 37.104 13.6392C37.104 13.9138 37.0496 14.1849 36.9407 14.4524C36.8342 14.7199 36.6436 15.017 36.369 15.3438C36.0943 15.6681 35.7073 16.0575 35.2077 16.5121L34.146 17.5526V17.6023H37.1999V18.8594H32.0153ZM41.1657 19.0192C40.5549 19.0168 40.0293 18.8665 39.589 18.5682C39.151 18.2699 38.8136 17.8378 38.5769 17.272C38.3425 16.7062 38.2265 16.0256 38.2289 15.2301C38.2289 14.437 38.3461 13.7611 38.5804 13.2024C38.8172 12.6437 39.1545 12.2187 39.5925 11.9276C40.0328 11.634 40.5572 11.4872 41.1657 11.4872C41.7741 11.4872 42.2973 11.634 42.7353 11.9276C43.1756 12.2211 43.5141 12.6473 43.7509 13.206C43.9876 13.7623 44.1048 14.437 44.1025 15.2301C44.1025 16.0279 43.9841 16.7098 43.7473 17.2756C43.513 17.8414 43.1768 18.2734 42.7388 18.5717C42.3008 18.87 41.7765 19.0192 41.1657 19.0192ZM41.1657 17.7443C41.5823 17.7443 41.915 17.5348 42.1635 17.1158C42.4121 16.6967 42.5352 16.0682 42.5328 15.2301C42.5328 14.6785 42.476 14.2192 42.3624 13.8523C42.2511 13.4853 42.0925 13.2095 41.8865 13.0249C41.6829 12.8402 41.4426 12.7479 41.1657 12.7479C40.7514 12.7479 40.4199 12.955 40.1713 13.3693C39.9228 13.7836 39.7973 14.4039 39.7949 15.2301C39.7949 15.7888 39.8506 16.2552 39.9618 16.6293C40.0755 17.0009 40.2353 17.2803 40.4412 17.4673C40.6472 17.652 40.8887 17.7443 41.1657 17.7443ZM49.1797 17.4957V17.1122C49.1797 16.821 49.2412 16.5535 49.3643 16.3097C49.4898 16.0634 49.6709 15.867 49.9077 15.7202C50.1468 15.571 50.438 15.4964 50.7812 15.4964C51.1293 15.4964 51.4216 15.5698 51.6584 15.7166C51.8975 15.8634 52.0774 16.0599 52.1982 16.3061C52.3213 16.55 52.3828 16.8187 52.3828 17.1122V17.4957C52.3828 17.7869 52.3213 18.0556 52.1982 18.3018C52.075 18.5457 51.8939 18.741 51.6548 18.8878C51.4157 19.0369 51.1245 19.1115 50.7812 19.1115C50.4332 19.1115 50.1409 19.0369 49.9041 18.8878C49.6674 18.741 49.4875 18.5457 49.3643 18.3018C49.2412 18.0556 49.1797 17.7869 49.1797 17.4957ZM50.2131 17.1122V17.4957C50.2131 17.6638 50.2533 17.8224 50.3338 17.9716C50.4167 18.1207 50.5658 18.1953 50.7812 18.1953C50.9967 18.1953 51.1435 18.1219 51.2216 17.9751C51.3021 17.8284 51.3423 17.6686 51.3423 17.4957V17.1122C51.3423 16.9394 51.3045 16.7784 51.2287 16.6293C51.1529 16.4801 51.0038 16.4055 50.7812 16.4055C50.5682 16.4055 50.4202 16.4801 50.3374 16.6293C50.2545 16.7784 50.2131 16.9394 50.2131 17.1122ZM45.4474 13.3338V12.9503C45.4474 12.6567 45.5102 12.388 45.6357 12.1442C45.7611 11.898 45.9422 11.7015 46.179 11.5547C46.4181 11.4079 46.7069 11.3345 47.0455 11.3345C47.3958 11.3345 47.6894 11.4079 47.9261 11.5547C48.1629 11.7015 48.3428 11.898 48.4659 12.1442C48.589 12.388 48.6506 12.6567 48.6506 12.9503V13.3338C48.6506 13.6274 48.5878 13.8961 48.4624 14.1399C48.3393 14.3838 48.1581 14.5791 47.919 14.7259C47.6823 14.8703 47.3911 14.9425 47.0455 14.9425C46.6998 14.9425 46.4074 14.8691 46.1683 14.7223C45.9316 14.5732 45.7517 14.3778 45.6286 14.1364C45.5078 13.8925 45.4474 13.625 45.4474 13.3338ZM46.4879 12.9503V13.3338C46.4879 13.5066 46.5282 13.6664 46.6087 13.8132C46.6915 13.96 46.8371 14.0334 47.0455 14.0334C47.2633 14.0334 47.4112 13.96 47.4893 13.8132C47.5698 13.6664 47.6101 13.5066 47.6101 13.3338V12.9503C47.6101 12.7775 47.5722 12.6165 47.4964 12.4673C47.4207 12.3182 47.2704 12.2436 47.0455 12.2436C46.8348 12.2436 46.6892 12.3194 46.6087 12.4709C46.5282 12.6224 46.4879 12.7822 46.4879 12.9503ZM45.9162 18.8594L50.9162 11.5866H51.8466L46.8466 18.8594H45.9162Z" fill="white"/>
<defs>
<clipPath id="clip0_44_12735">
<rect width="29" height="29" fill="white" transform="translate(15.0273 0.859375)"/>
</clipPath>
</defs>
</svg>
