<svg width="60" height="61" viewBox="0 0 60 61" fill="none" xmlns="http://www.w3.org/2000/svg">
<rect x="17.0273" y="17.3594" width="26" height="26" rx="13" stroke="#AFB1B5" stroke-opacity="0.05"/>
<g filter="url(#filter0_d_44_12749)">
<circle cx="30.0273" cy="30.3594" r="12.5" fill="white"/>
</g>
<g clip-path="url(#clip0_44_12749)">
<path fill-rule="evenodd" clip-rule="evenodd" d="M25.9454 27.4731C26.3938 27.0248 27.0019 26.7729 27.636 26.7729C28.2701 26.7729 28.8782 27.0248 29.3267 27.4731L30.0273 28.1731L30.728 27.4731C30.9486 27.2447 31.2124 27.0625 31.5042 26.9372C31.7959 26.8119 32.1097 26.7459 32.4272 26.7431C32.7448 26.7404 33.0596 26.8009 33.3535 26.9211C33.6474 27.0414 33.9144 27.2189 34.1389 27.4434C34.3635 27.668 34.541 27.935 34.6613 28.2288C34.7815 28.5227 34.842 28.8376 34.8392 29.1551C34.8365 29.4726 34.7705 29.7864 34.6452 30.0782C34.5199 30.3699 34.3377 30.6338 34.1093 30.8544L30.0273 34.9369L25.9454 30.8544C25.4971 30.4059 25.2452 29.7978 25.2452 29.1637C25.2452 28.5296 25.4971 27.9215 25.9454 27.4731Z" fill="#FF5555" stroke="#FF5555" stroke-width="0.695652" stroke-linejoin="round"/>
</g>
<defs>
<filter id="filter0_d_44_12749" x="0.13604" y="0.468071" width="59.7826" height="59.7826" filterUnits="userSpaceOnUse" color-interpolation-filters="sRGB">
<feFlood flood-opacity="0" result="BackgroundImageFix"/>
<feColorMatrix in="SourceAlpha" type="matrix" values="0 0 0 0 0 0 0 0 0 0 0 0 0 0 0 0 0 0 127 0" result="hardAlpha"/>
<feOffset/>
<feGaussianBlur stdDeviation="8.69565"/>
<feComposite in2="hardAlpha" operator="out"/>
<feColorMatrix type="matrix" values="0 0 0 0 0 0 0 0 0 0 0 0 0 0 0 0 0 0 0.06 0"/>
<feBlend mode="normal" in2="BackgroundImageFix" result="effect1_dropShadow_44_12749"/>
<feBlend mode="normal" in="SourceGraphic" in2="effect1_dropShadow_44_12749" result="shape"/>
</filter>
<clipPath id="clip0_44_12749">
<rect width="11.9565" height="11.9565" fill="white" transform="translate(24.0491 24.3811)"/>
</clipPath>
</defs>
</svg>
