<svg width="347" height="30" viewBox="0 0 347 30" fill="none" xmlns="http://www.w3.org/2000/svg">
<rect x="211.777" y="4.10938" width="134.5" height="22.5" rx="4.75" stroke="#1455AC" stroke-width="0.5"/>
<path d="M217.408 18.8594V11.5866H221.797V12.3679H218.289V14.8253H221.57V15.6065H218.289V18.0781H221.854V18.8594H217.408ZM224.109 15.5781V18.8594H223.271V13.4048H224.081V14.2571H224.152C224.279 13.9801 224.474 13.7576 224.734 13.5895C224.994 13.419 225.331 13.3338 225.743 13.3338C226.112 13.3338 226.435 13.4096 226.712 13.5611C226.989 13.7102 227.204 13.9375 227.358 14.2429C227.512 14.5459 227.589 14.9295 227.589 15.3935V18.8594H226.751V15.4503C226.751 15.0218 226.64 14.688 226.417 14.4489C226.195 14.2074 225.889 14.0866 225.501 14.0866C225.234 14.0866 224.994 14.1446 224.784 14.2607C224.575 14.3767 224.411 14.5459 224.29 14.7685C224.169 14.991 224.109 15.2609 224.109 15.5781ZM231.18 18.973C230.726 18.973 230.324 18.8582 229.976 18.6286C229.628 18.3965 229.356 18.0698 229.16 17.6484C228.963 17.2247 228.865 16.724 228.865 16.1463C228.865 15.5734 228.963 15.0762 229.16 14.6548C229.356 14.2334 229.63 13.9079 229.98 13.6783C230.33 13.4486 230.735 13.3338 231.194 13.3338C231.55 13.3338 231.83 13.393 232.036 13.5114C232.244 13.6274 232.403 13.7599 232.512 13.9091C232.623 14.0559 232.71 14.1766 232.771 14.2713H232.842V11.5866H233.68V18.8594H232.871V18.0213H232.771C232.71 18.1207 232.622 18.2462 232.508 18.3977C232.395 18.5469 232.233 18.6806 232.022 18.799C231.811 18.915 231.531 18.973 231.18 18.973ZM231.294 18.2202C231.63 18.2202 231.914 18.1326 232.146 17.9574C232.378 17.7798 232.555 17.5348 232.675 17.2223C232.796 16.9074 232.856 16.544 232.856 16.1321C232.856 15.7249 232.797 15.3686 232.679 15.0632C232.56 14.7554 232.385 14.5163 232.153 14.3459C231.921 14.1731 231.635 14.0866 231.294 14.0866C230.939 14.0866 230.643 14.1778 230.406 14.3601C230.172 14.54 229.995 14.785 229.877 15.0952C229.761 15.4029 229.703 15.7486 229.703 16.1321C229.703 16.5204 229.762 16.8731 229.881 17.1903C230.001 17.5052 230.179 17.7562 230.413 17.9432C230.65 18.1278 230.943 18.2202 231.294 18.2202ZM239.195 14.6264L238.442 14.8395C238.395 14.714 238.325 14.5921 238.233 14.4737C238.143 14.353 238.02 14.2536 237.863 14.1754C237.707 14.0973 237.507 14.0582 237.263 14.0582C236.93 14.0582 236.651 14.1352 236.429 14.2891C236.209 14.4406 236.099 14.6335 236.099 14.8679C236.099 15.0762 236.174 15.2408 236.326 15.3615C236.477 15.4822 236.714 15.5829 237.036 15.6634L237.846 15.8622C238.333 15.9806 238.697 16.1617 238.936 16.4055C239.175 16.647 239.295 16.9583 239.295 17.3395C239.295 17.652 239.205 17.9313 239.025 18.1776C238.847 18.4238 238.599 18.6179 238.279 18.7599C237.959 18.902 237.588 18.973 237.164 18.973C236.608 18.973 236.147 18.8523 235.782 18.6108C235.418 18.3693 235.187 18.0166 235.09 17.5526L235.885 17.3537C235.961 17.6473 236.104 17.8674 236.315 18.0142C236.528 18.161 236.806 18.2344 237.15 18.2344C237.54 18.2344 237.85 18.1515 238.08 17.9858C238.312 17.8177 238.428 17.6165 238.428 17.3821C238.428 17.1927 238.362 17.0341 238.229 16.9062C238.097 16.776 237.893 16.679 237.618 16.6151L236.709 16.402C236.21 16.2836 235.843 16.1001 235.608 15.8516C235.376 15.6006 235.26 15.2869 235.26 14.9105C235.26 14.6027 235.347 14.3305 235.52 14.0938C235.695 13.857 235.933 13.6712 236.233 13.5362C236.537 13.4013 236.88 13.3338 237.263 13.3338C237.803 13.3338 238.227 13.4522 238.535 13.6889C238.845 13.9257 239.065 14.2382 239.195 14.6264ZM243.369 18.8594V13.4048H244.207V18.8594H243.369ZM243.795 12.4957C243.631 12.4957 243.491 12.4401 243.372 12.3288C243.256 12.2176 243.198 12.0838 243.198 11.9276C243.198 11.7713 243.256 11.6375 243.372 11.5263C243.491 11.415 243.631 11.3594 243.795 11.3594C243.958 11.3594 244.098 11.415 244.214 11.5263C244.332 11.6375 244.391 11.7713 244.391 11.9276C244.391 12.0838 244.332 12.2176 244.214 12.3288C244.098 12.4401 243.958 12.4957 243.795 12.4957ZM246.58 15.5781V18.8594H245.742V13.4048H246.551V14.2571H246.622C246.75 13.9801 246.944 13.7576 247.205 13.5895C247.465 13.419 247.801 13.3338 248.213 13.3338C248.583 13.3338 248.906 13.4096 249.183 13.5611C249.46 13.7102 249.675 13.9375 249.829 14.2429C249.983 14.5459 250.06 14.9295 250.06 15.3935V18.8594H249.222V15.4503C249.222 15.0218 249.11 14.688 248.888 14.4489C248.665 14.2074 248.36 14.0866 247.972 14.0866C247.704 14.0866 247.465 14.1446 247.254 14.2607C247.046 14.3767 246.882 14.5459 246.761 14.7685C246.64 14.991 246.58 15.2609 246.58 15.5781Z" fill="#1455AC"/>
<path d="M260.195 20.0117C259.552 20.0117 259 19.849 258.539 19.5234C258.081 19.1953 257.728 18.7227 257.48 18.1055C257.236 17.4857 257.113 16.7396 257.113 15.8672C257.116 14.9948 257.24 14.2526 257.484 13.6406C257.732 13.026 258.085 12.5573 258.543 12.2344C259.004 11.9115 259.555 11.75 260.195 11.75C260.836 11.75 261.387 11.9115 261.848 12.2344C262.309 12.5573 262.661 13.026 262.906 13.6406C263.154 14.2552 263.277 14.9974 263.277 15.8672C263.277 16.7422 263.154 17.4896 262.906 18.1094C262.661 18.7266 262.309 19.1979 261.848 19.5234C261.389 19.849 260.839 20.0117 260.195 20.0117ZM260.195 18.7891C260.695 18.7891 261.09 18.543 261.379 18.0508C261.671 17.556 261.816 16.8281 261.816 15.8672C261.816 15.2318 261.75 14.6979 261.617 14.2656C261.484 13.8333 261.297 13.5078 261.055 13.2891C260.813 13.0677 260.526 12.957 260.195 12.957C259.698 12.957 259.305 13.2044 259.016 13.6992C258.727 14.1914 258.581 14.9141 258.578 15.8672C258.576 16.5052 258.639 17.0417 258.77 17.4766C258.902 17.9115 259.09 18.2396 259.332 18.4609C259.574 18.6797 259.862 18.7891 260.195 18.7891ZM268.505 19.9687C268.122 19.9661 267.748 19.8997 267.384 19.7695C267.019 19.6367 266.691 19.4219 266.399 19.125C266.108 18.8255 265.876 18.4284 265.704 17.9336C265.532 17.4362 265.448 16.8203 265.45 16.0859C265.45 15.401 265.523 14.7904 265.669 14.2539C265.815 13.7174 266.024 13.2643 266.298 12.8945C266.571 12.5221 266.901 12.2383 267.286 12.043C267.674 11.8477 268.108 11.75 268.587 11.75C269.09 11.75 269.535 11.849 269.923 12.0469C270.313 12.2448 270.629 12.5156 270.868 12.8594C271.108 13.2005 271.256 13.5859 271.313 14.0156H269.888C269.815 13.7083 269.665 13.4635 269.438 13.2812C269.215 13.0964 268.931 13.0039 268.587 13.0039C268.032 13.0039 267.605 13.2448 267.306 13.7266C267.009 14.2083 266.859 14.8698 266.856 15.7109H266.911C267.039 15.4818 267.204 15.2852 267.407 15.1211C267.61 14.957 267.84 14.8307 268.095 14.7422C268.353 14.651 268.625 14.6055 268.911 14.6055C269.38 14.6055 269.8 14.7174 270.173 14.9414C270.548 15.1654 270.845 15.474 271.063 15.8672C271.282 16.2578 271.39 16.7057 271.388 17.2109C271.39 17.737 271.271 18.2096 271.028 18.6289C270.786 19.0456 270.449 19.3737 270.017 19.6133C269.584 19.8529 269.08 19.9714 268.505 19.9687ZM268.497 18.7969C268.781 18.7969 269.035 18.7279 269.259 18.5898C269.483 18.4518 269.66 18.2656 269.79 18.0312C269.92 17.7969 269.984 17.5339 269.981 17.2422C269.984 16.9557 269.922 16.6966 269.794 16.4648C269.669 16.2331 269.496 16.0495 269.274 15.9141C269.053 15.7786 268.8 15.7109 268.517 15.7109C268.306 15.7109 268.109 15.7513 267.927 15.832C267.744 15.9128 267.586 16.0247 267.45 16.168C267.315 16.3086 267.208 16.4727 267.13 16.6602C267.054 16.8451 267.015 17.043 267.013 17.2539C267.015 17.5326 267.08 17.7891 267.208 18.0234C267.336 18.2578 267.511 18.4453 267.735 18.5859C267.959 18.7266 268.213 18.7969 268.497 18.7969ZM274.595 18.8984C274.358 18.8984 274.155 18.8151 273.985 18.6484C273.816 18.4792 273.733 18.276 273.735 18.0391C273.733 17.8047 273.816 17.6042 273.985 17.4375C274.155 17.2708 274.358 17.1875 274.595 17.1875C274.824 17.1875 275.023 17.2708 275.192 17.4375C275.364 17.6042 275.451 17.8047 275.454 18.0391C275.451 18.1979 275.41 18.3424 275.329 18.4727C275.251 18.6029 275.147 18.707 275.017 18.7852C274.889 18.8607 274.748 18.8984 274.595 18.8984ZM274.595 14.9336C274.358 14.9336 274.155 14.8503 273.985 14.6836C273.816 14.5143 273.733 14.3112 273.735 14.0742C273.733 13.8398 273.816 13.6393 273.985 13.4727C274.155 13.3034 274.358 13.2187 274.595 13.2187C274.824 13.2187 275.023 13.3034 275.192 13.4727C275.364 13.6393 275.451 13.8398 275.454 14.0742C275.451 14.2305 275.41 14.3737 275.329 14.5039C275.251 14.6341 275.147 14.7383 275.017 14.8164C274.889 14.8945 274.748 14.9336 274.595 14.9336ZM284.584 20.0117C283.941 20.0117 283.389 19.849 282.928 19.5234C282.469 19.1953 282.117 18.7227 281.869 18.1055C281.624 17.4857 281.502 16.7396 281.502 15.8672C281.505 14.9948 281.628 14.2526 281.873 13.6406C282.12 13.026 282.473 12.5573 282.932 12.2344C283.393 11.9115 283.943 11.75 284.584 11.75C285.225 11.75 285.775 11.9115 286.236 12.2344C286.697 12.5573 287.05 13.026 287.295 13.6406C287.542 14.2552 287.666 14.9974 287.666 15.8672C287.666 16.7422 287.542 17.4896 287.295 18.1094C287.05 18.7266 286.697 19.1979 286.236 19.5234C285.778 19.849 285.227 20.0117 284.584 20.0117ZM284.584 18.7891C285.084 18.7891 285.479 18.543 285.768 18.0508C286.059 17.556 286.205 16.8281 286.205 15.8672C286.205 15.2318 286.139 14.6979 286.006 14.2656C285.873 13.8333 285.686 13.5078 285.443 13.2891C285.201 13.0677 284.915 12.957 284.584 12.957C284.087 12.957 283.693 13.2044 283.404 13.6992C283.115 14.1914 282.969 14.9141 282.967 15.8672C282.964 16.5052 283.028 17.0417 283.158 17.4766C283.291 17.9115 283.479 18.2396 283.721 18.4609C283.963 18.6797 284.251 18.7891 284.584 18.7891ZM289.964 19.8594V18.8125L292.741 16.0898C293.007 15.8216 293.228 15.5833 293.405 15.375C293.582 15.1667 293.715 14.9648 293.804 14.7695C293.892 14.5742 293.937 14.3659 293.937 14.1445C293.937 13.8919 293.879 13.6758 293.765 13.4961C293.65 13.3138 293.493 13.1732 293.292 13.0742C293.091 12.9753 292.864 12.9258 292.608 12.9258C292.345 12.9258 292.115 12.9805 291.917 13.0898C291.719 13.1966 291.565 13.349 291.456 13.5469C291.349 13.7448 291.296 13.9805 291.296 14.2539H289.917C289.917 13.7461 290.033 13.3047 290.265 12.9297C290.496 12.5547 290.815 12.2643 291.222 12.0586C291.631 11.8529 292.099 11.75 292.628 11.75C293.164 11.75 293.636 11.8503 294.042 12.0508C294.448 12.2513 294.763 12.526 294.987 12.875C295.214 13.224 295.327 13.6224 295.327 14.0703C295.327 14.3698 295.27 14.6641 295.155 14.9531C295.041 15.2422 294.839 15.5625 294.55 15.9141C294.263 16.2656 293.861 16.6914 293.343 17.1914L291.964 18.5937V18.6484H295.448V19.8594H289.964ZM298.683 18.8984C298.446 18.8984 298.243 18.8151 298.073 18.6484C297.904 18.4792 297.821 18.276 297.823 18.0391C297.821 17.8047 297.904 17.6042 298.073 17.4375C298.243 17.2708 298.446 17.1875 298.683 17.1875C298.912 17.1875 299.111 17.2708 299.28 17.4375C299.452 17.6042 299.539 17.8047 299.542 18.0391C299.539 18.1979 299.498 18.3424 299.417 18.4727C299.339 18.6029 299.235 18.707 299.104 18.7852C298.977 18.8607 298.836 18.8984 298.683 18.8984ZM298.683 14.9336C298.446 14.9336 298.243 14.8503 298.073 14.6836C297.904 14.5143 297.821 14.3112 297.823 14.0742C297.821 13.8398 297.904 13.6393 298.073 13.4727C298.243 13.3034 298.446 13.2187 298.683 13.2187C298.912 13.2187 299.111 13.3034 299.28 13.4727C299.452 13.6393 299.539 13.8398 299.542 14.0742C299.539 14.2305 299.498 14.3737 299.417 14.5039C299.339 14.6341 299.235 14.7383 299.104 14.8164C298.977 14.8945 298.836 14.9336 298.683 14.9336ZM308.672 20.0117C308.029 20.0117 307.477 19.849 307.016 19.5234C306.557 19.1953 306.204 18.7227 305.957 18.1055C305.712 17.4857 305.59 16.7396 305.59 15.8672C305.592 14.9948 305.716 14.2526 305.961 13.6406C306.208 13.026 306.561 12.5573 307.02 12.2344C307.48 11.9115 308.031 11.75 308.672 11.75C309.313 11.75 309.863 11.9115 310.324 12.2344C310.785 12.5573 311.138 13.026 311.383 13.6406C311.63 14.2552 311.754 14.9974 311.754 15.8672C311.754 16.7422 311.63 17.4896 311.383 18.1094C311.138 18.7266 310.785 19.1979 310.324 19.5234C309.866 19.849 309.315 20.0117 308.672 20.0117ZM308.672 18.7891C309.172 18.7891 309.566 18.543 309.855 18.0508C310.147 17.556 310.293 16.8281 310.293 15.8672C310.293 15.2318 310.227 14.6979 310.094 14.2656C309.961 13.8333 309.773 13.5078 309.531 13.2891C309.289 13.0677 309.003 12.957 308.672 12.957C308.174 12.957 307.781 13.2044 307.492 13.6992C307.203 14.1914 307.057 14.9141 307.055 15.8672C307.052 16.5052 307.116 17.0417 307.246 17.4766C307.379 17.9115 307.566 18.2396 307.809 18.4609C308.051 18.6797 308.339 18.7891 308.672 18.7891ZM313.907 18.375V17.2227L317.302 11.8594H318.263V13.5H317.677L315.392 17.1211V17.1836H320.13V18.375H313.907ZM317.724 19.8594V18.0234L317.739 17.5078V11.8594H319.106V19.8594H317.724ZM323.265 18.8984C323.028 18.8984 322.825 18.8151 322.655 18.6484C322.486 18.4792 322.403 18.276 322.405 18.0391C322.403 17.8047 322.486 17.6042 322.655 17.4375C322.825 17.2708 323.028 17.1875 323.265 17.1875C323.494 17.1875 323.693 17.2708 323.862 17.4375C324.034 17.6042 324.121 17.8047 324.124 18.0391C324.121 18.1979 324.08 18.3424 323.999 18.4727C323.921 18.6029 323.817 18.707 323.687 18.7852C323.559 18.8607 323.418 18.8984 323.265 18.8984ZM323.265 14.9336C323.028 14.9336 322.825 14.8503 322.655 14.6836C322.486 14.5143 322.403 14.3112 322.405 14.0742C322.403 13.8398 322.486 13.6393 322.655 13.4727C322.825 13.3034 323.028 13.2187 323.265 13.2187C323.494 13.2187 323.693 13.3034 323.862 13.4727C324.034 13.6393 324.121 13.8398 324.124 14.0742C324.121 14.2305 324.08 14.3737 323.999 14.5039C323.921 14.6341 323.817 14.7383 323.687 14.8164C323.559 14.8945 323.418 14.9336 323.265 14.9336ZM329.525 20.0117C328.882 20.0117 328.33 19.849 327.869 19.5234C327.411 19.1953 327.058 18.7227 326.811 18.1055C326.566 17.4857 326.443 16.7396 326.443 15.8672C326.446 14.9948 326.57 14.2526 326.814 13.6406C327.062 13.026 327.415 12.5573 327.873 12.2344C328.334 11.9115 328.885 11.75 329.525 11.75C330.166 11.75 330.717 11.9115 331.178 12.2344C331.639 12.5573 331.992 13.026 332.236 13.6406C332.484 14.2552 332.607 14.9974 332.607 15.8672C332.607 16.7422 332.484 17.4896 332.236 18.1094C331.992 18.7266 331.639 19.1979 331.178 19.5234C330.719 19.849 330.169 20.0117 329.525 20.0117ZM329.525 18.7891C330.025 18.7891 330.42 18.543 330.709 18.0508C331.001 17.556 331.146 16.8281 331.146 15.8672C331.146 15.2318 331.08 14.6979 330.947 14.2656C330.814 13.8333 330.627 13.5078 330.385 13.2891C330.143 13.0677 329.856 12.957 329.525 12.957C329.028 12.957 328.635 13.2044 328.346 13.6992C328.057 14.1914 327.911 14.9141 327.908 15.8672C327.906 16.5052 327.969 17.0417 328.1 17.4766C328.232 17.9115 328.42 18.2396 328.662 18.4609C328.904 18.6797 329.192 18.7891 329.525 18.7891ZM337.749 19.9687C337.168 19.9687 336.653 19.8711 336.202 19.6758C335.754 19.4805 335.403 19.2135 335.147 18.875C334.895 18.5339 334.77 18.1471 334.772 17.7148C334.77 17.3789 334.843 17.0703 334.991 16.7891C335.14 16.5078 335.34 16.2734 335.593 16.0859C335.848 15.8958 336.132 15.7747 336.444 15.7227V15.668C336.033 15.5768 335.7 15.3672 335.444 15.0391C335.192 14.7083 335.067 14.3268 335.069 13.8945C335.067 13.4831 335.181 13.1159 335.413 12.793C335.645 12.4701 335.963 12.2161 336.366 12.0312C336.77 11.8437 337.231 11.75 337.749 11.75C338.262 11.75 338.719 11.8437 339.12 12.0312C339.524 12.2161 339.841 12.4701 340.073 12.793C340.308 13.1159 340.425 13.4831 340.425 13.8945C340.425 14.3268 340.296 14.7083 340.038 15.0391C339.783 15.3672 339.453 15.5768 339.05 15.668V15.7227C339.362 15.7747 339.644 15.8958 339.894 16.0859C340.146 16.2734 340.347 16.5078 340.495 16.7891C340.646 17.0703 340.722 17.3789 340.722 17.7148C340.722 18.1471 340.594 18.5339 340.339 18.875C340.084 19.2135 339.732 19.4805 339.284 19.6758C338.839 19.8711 338.327 19.9687 337.749 19.9687ZM337.749 18.8516C338.049 18.8516 338.309 18.8008 338.53 18.6992C338.752 18.5951 338.924 18.4492 339.046 18.2617C339.168 18.0742 339.231 17.8581 339.233 17.6133C339.231 17.3581 339.164 17.1328 339.034 16.9375C338.907 16.7396 338.731 16.5846 338.507 16.4727C338.285 16.3607 338.033 16.3047 337.749 16.3047C337.463 16.3047 337.207 16.3607 336.983 16.4727C336.759 16.5846 336.582 16.7396 336.452 16.9375C336.325 17.1328 336.262 17.3581 336.265 17.6133C336.262 17.8581 336.322 18.0742 336.444 18.2617C336.567 18.4466 336.739 18.5911 336.96 18.6953C337.184 18.7995 337.447 18.8516 337.749 18.8516ZM337.749 15.207C337.994 15.207 338.21 15.1576 338.397 15.0586C338.588 14.9596 338.737 14.8216 338.847 14.6445C338.956 14.4674 339.012 14.263 339.015 14.0312C339.012 13.8021 338.957 13.6016 338.851 13.4297C338.744 13.2552 338.595 13.1211 338.405 13.0273C338.215 12.931 337.996 12.8828 337.749 12.8828C337.496 12.8828 337.274 12.931 337.081 13.0273C336.891 13.1211 336.743 13.2552 336.636 13.4297C336.532 13.6016 336.481 13.8021 336.483 14.0312C336.481 14.263 336.533 14.4674 336.64 14.6445C336.749 14.819 336.899 14.957 337.089 15.0586C337.282 15.1576 337.502 15.207 337.749 15.207Z" fill="#1455AC"/>
<path d="M10.7688 15.7685C10.7688 16.8788 10.5584 17.8234 10.1374 18.6023C9.71982 19.3812 9.14974 19.9761 8.4272 20.3871C7.70798 20.7947 6.89927 20.9986 6.00107 20.9986C5.09624 20.9986 4.28421 20.7931 3.56499 20.3821C2.84576 19.9711 2.27734 19.3762 1.85973 18.5973C1.44212 17.8184 1.23331 16.8755 1.23331 15.7685C1.23331 14.6581 1.44212 13.7135 1.85973 12.9347C2.27734 12.1558 2.84576 11.5625 3.56499 11.1548C4.28421 10.7438 5.09624 10.5384 6.00107 10.5384C6.89927 10.5384 7.70798 10.7438 8.4272 11.1548C9.14974 11.5625 9.71982 12.1558 10.1374 12.9347C10.5584 13.7135 10.7688 14.6581 10.7688 15.7685ZM8.58629 15.7685C8.58629 15.0492 8.47858 14.4427 8.26314 13.9489C8.05102 13.455 7.75107 13.0805 7.36328 12.8253C6.9755 12.5701 6.52143 12.4425 6.00107 12.4425C5.48071 12.4425 5.02663 12.5701 4.63885 12.8253C4.25107 13.0805 3.94946 13.455 3.73402 13.9489C3.5219 14.4427 3.41584 15.0492 3.41584 15.7685C3.41584 16.4877 3.5219 17.0942 3.73402 17.5881C3.94946 18.0819 4.25107 18.4564 4.63885 18.7116C5.02663 18.9669 5.48071 19.0945 6.00107 19.0945C6.52143 19.0945 6.9755 18.9669 7.36328 18.7116C7.75107 18.4564 8.05102 18.0819 8.26314 17.5881C8.47858 17.0942 8.58629 16.4877 8.58629 15.7685ZM14.4416 16.4446V20.8594H12.3237V13.223H14.3422V14.5703H14.4316C14.6007 14.1262 14.8841 13.7749 15.2818 13.5163C15.6795 13.2545 16.1618 13.1236 16.7285 13.1236C17.2588 13.1236 17.7212 13.2396 18.1156 13.4716C18.51 13.7036 18.8166 14.035 19.0353 14.4659C19.2541 14.8935 19.3635 15.4039 19.3635 15.9972V20.8594H17.2456V16.375C17.2489 15.9077 17.1296 15.5431 16.8876 15.2812C16.6457 15.0161 16.3126 14.8835 15.8883 14.8835C15.6033 14.8835 15.3514 14.9448 15.1326 15.0675C14.9172 15.1901 14.7482 15.3691 14.6255 15.6044C14.5062 15.8364 14.4449 16.1165 14.4416 16.4446ZM24.5128 21.0085C23.7273 21.0085 23.0511 20.8494 22.4844 20.5312C21.9209 20.2098 21.4867 19.7557 21.1818 19.169C20.8769 18.5791 20.7244 17.8814 20.7244 17.076C20.7244 16.2905 20.8769 15.6011 21.1818 15.0078C21.4867 14.4145 21.916 13.9522 22.4695 13.6207C23.0263 13.2893 23.6792 13.1236 24.4283 13.1236C24.9321 13.1236 25.401 13.2048 25.8352 13.3672C26.2727 13.5263 26.6539 13.7666 26.9787 14.0881C27.3068 14.4096 27.562 14.8139 27.7443 15.3011C27.9266 15.785 28.0178 16.3518 28.0178 17.0014V17.5831H21.5696V16.2706H26.0241C26.0241 15.9657 25.9579 15.6955 25.8253 15.4602C25.6927 15.2249 25.5088 15.041 25.2734 14.9084C25.0414 14.7725 24.7713 14.7045 24.4631 14.7045C24.1416 14.7045 23.8565 14.7791 23.608 14.9283C23.3627 15.0741 23.1705 15.2713 23.0312 15.5199C22.892 15.7652 22.8208 16.0386 22.8175 16.3402V17.5881C22.8175 17.9659 22.8871 18.2924 23.0263 18.5675C23.1688 18.8426 23.3693 19.0547 23.6278 19.2038C23.8864 19.353 24.1929 19.4276 24.5476 19.4276C24.7829 19.4276 24.9983 19.3944 25.1939 19.3281C25.3894 19.2618 25.5568 19.1624 25.696 19.0298C25.8352 18.8973 25.9413 18.7348 26.0142 18.5426L27.973 18.6719C27.8736 19.1425 27.6697 19.5535 27.3615 19.9048C27.0566 20.2528 26.6622 20.5246 26.1783 20.7202C25.6977 20.9124 25.1425 21.0085 24.5128 21.0085ZM32.2921 12.4524V10.6776H40.6543V12.4524H37.5371V20.8594H35.4093V12.4524H32.2921ZM41.9917 20.8594V13.223H44.1096V20.8594H41.9917ZM43.0556 12.2386C42.7407 12.2386 42.4706 12.1342 42.2452 11.9254C42.0231 11.7133 41.9121 11.4598 41.9121 11.1648C41.9121 10.8731 42.0231 10.6229 42.2452 10.4141C42.4706 10.2019 42.7407 10.0959 43.0556 10.0959C43.3704 10.0959 43.6389 10.2019 43.861 10.4141C44.0864 10.6229 44.199 10.8731 44.199 11.1648C44.199 11.4598 44.0864 11.7133 43.861 11.9254C43.6389 12.1342 43.3704 12.2386 43.0556 12.2386ZM45.8061 20.8594V13.223H47.8246V14.5703H47.9141C48.0732 14.1229 48.3383 13.7699 48.7095 13.5114C49.0807 13.2528 49.5249 13.1236 50.0419 13.1236C50.5656 13.1236 51.0114 13.2545 51.3793 13.5163C51.7472 13.7749 51.9924 14.1262 52.1151 14.5703H52.1946C52.3504 14.1328 52.6321 13.7831 53.0398 13.5213C53.4508 13.2562 53.9363 13.1236 54.4964 13.1236C55.209 13.1236 55.7874 13.3506 56.2315 13.8047C56.679 14.2554 56.9027 14.8951 56.9027 15.7237V20.8594H54.7898V16.1413C54.7898 15.7171 54.6771 15.3989 54.4517 15.1868C54.2263 14.9747 53.9446 14.8686 53.6065 14.8686C53.2221 14.8686 52.9221 14.9912 52.7067 15.2365C52.4912 15.4785 52.3835 15.7983 52.3835 16.196V20.8594H50.3303V16.0966C50.3303 15.7221 50.2225 15.4238 50.0071 15.2017C49.795 14.9796 49.5149 14.8686 49.1669 14.8686C48.9316 14.8686 48.7195 14.9283 48.5305 15.0476C48.3449 15.1636 48.1974 15.3277 48.0881 15.5398C47.9787 15.7486 47.924 15.9938 47.924 16.2756V20.8594H45.8061ZM62.0558 21.0085C61.2702 21.0085 60.5941 20.8494 60.0273 20.5312C59.4639 20.2098 59.0297 19.7557 58.7248 19.169C58.4199 18.5791 58.2674 17.8814 58.2674 17.076C58.2674 16.2905 58.4199 15.6011 58.7248 15.0078C59.0297 14.4145 59.4589 13.9522 60.0124 13.6207C60.5692 13.2893 61.2222 13.1236 61.9712 13.1236C62.475 13.1236 62.944 13.2048 63.3782 13.3672C63.8157 13.5263 64.1969 13.7666 64.5217 14.0881C64.8498 14.4096 65.105 14.8139 65.2873 15.3011C65.4696 15.785 65.5607 16.3518 65.5607 17.0014V17.5831H59.1126V16.2706H63.5671C63.5671 15.9657 63.5008 15.6955 63.3683 15.4602C63.2357 15.2249 63.0517 15.041 62.8164 14.9084C62.5844 14.7725 62.3143 14.7045 62.006 14.7045C61.6845 14.7045 61.3995 14.7791 61.1509 14.9283C60.9057 15.0741 60.7134 15.2713 60.5742 15.5199C60.435 15.7652 60.3638 16.0386 60.3604 16.3402V17.5881C60.3604 17.9659 60.43 18.2924 60.5692 18.5675C60.7118 18.8426 60.9123 19.0547 61.1708 19.2038C61.4293 19.353 61.7359 19.4276 62.0906 19.4276C62.3259 19.4276 62.5413 19.3944 62.7369 19.3281C62.9324 19.2618 63.0998 19.1624 63.239 19.0298C63.3782 18.8973 63.4843 18.7348 63.5572 18.5426L65.516 18.6719C65.4165 19.1425 65.2127 19.5535 64.9045 19.9048C64.5996 20.2528 64.2051 20.5246 63.7212 20.7202C63.2406 20.9124 62.6855 21.0085 62.0558 21.0085ZM73.8322 20.8594H70.2228V10.6776H73.862C74.8862 10.6776 75.7678 10.8814 76.5069 11.2891C77.246 11.6934 77.8145 12.2751 78.2122 13.0341C78.6132 13.7931 78.8137 14.7012 78.8137 15.7585C78.8137 16.8191 78.6132 17.7306 78.2122 18.4929C77.8145 19.2552 77.2427 19.8402 76.497 20.2479C75.7546 20.6555 74.8663 20.8594 73.8322 20.8594ZM72.3755 19.0149H73.7427C74.3791 19.0149 74.9144 18.9022 75.3485 18.6768C75.786 18.4482 76.1142 18.0952 76.3329 17.6179C76.555 17.1373 76.666 16.5175 76.666 15.7585C76.666 15.0062 76.555 14.3913 76.3329 13.9141C76.1142 13.4368 75.7877 13.0855 75.3535 12.8601C74.9193 12.6347 74.3841 12.522 73.7477 12.522H72.3755V19.0149ZM83.8487 21.0085C83.0632 21.0085 82.3871 20.8494 81.8203 20.5312C81.2569 20.2098 80.8227 19.7557 80.5178 19.169C80.2128 18.5791 80.0604 17.8814 80.0604 17.076C80.0604 16.2905 80.2128 15.6011 80.5178 15.0078C80.8227 14.4145 81.2519 13.9522 81.8054 13.6207C82.3622 13.2893 83.0152 13.1236 83.7642 13.1236C84.268 13.1236 84.737 13.2048 85.1712 13.3672C85.6087 13.5263 85.9898 13.7666 86.3146 14.0881C86.6428 14.4096 86.898 14.8139 87.0803 15.3011C87.2625 15.785 87.3537 16.3518 87.3537 17.0014V17.5831H80.9055V16.2706H85.3601C85.3601 15.9657 85.2938 15.6955 85.1612 15.4602C85.0286 15.2249 84.8447 15.041 84.6094 14.9084C84.3774 14.7725 84.1072 14.7045 83.799 14.7045C83.4775 14.7045 83.1925 14.7791 82.9439 14.9283C82.6986 15.0741 82.5064 15.2713 82.3672 15.5199C82.228 15.7652 82.1567 16.0386 82.1534 16.3402V17.5881C82.1534 17.9659 82.223 18.2924 82.3622 18.5675C82.5047 18.8426 82.7053 19.0547 82.9638 19.2038C83.2223 19.353 83.5289 19.4276 83.8835 19.4276C84.1188 19.4276 84.3343 19.3944 84.5298 19.3281C84.7254 19.2618 84.8928 19.1624 85.032 19.0298C85.1712 18.8973 85.2772 18.7348 85.3501 18.5426L87.3089 18.6719C87.2095 19.1425 87.0057 19.5535 86.6974 19.9048C86.3925 20.2528 85.9981 20.5246 85.5142 20.7202C85.0336 20.9124 84.4785 21.0085 83.8487 21.0085ZM90.9134 21.0036C90.4261 21.0036 89.992 20.919 89.6108 20.75C89.2296 20.5777 88.928 20.3241 88.706 19.9893C88.4872 19.6513 88.3778 19.2304 88.3778 18.7266C88.3778 18.3023 88.4557 17.946 88.6115 17.6577C88.7673 17.3693 88.9794 17.1373 89.2479 16.9616C89.5163 16.786 89.8213 16.6534 90.1626 16.5639C90.5073 16.4744 90.8686 16.4115 91.2464 16.375C91.6906 16.3286 92.0485 16.2855 92.3203 16.2457C92.5921 16.2027 92.7893 16.1397 92.9119 16.0568C93.0346 15.974 93.0959 15.8513 93.0959 15.6889V15.6591C93.0959 15.3442 92.9964 15.1006 92.7976 14.9283C92.602 14.7559 92.3236 14.6697 91.9624 14.6697C91.5812 14.6697 91.2779 14.7543 91.0526 14.9233C90.8272 15.089 90.678 15.2978 90.6051 15.5497L88.6463 15.3906C88.7457 14.9266 88.9413 14.5256 89.233 14.1875C89.5246 13.8461 89.9008 13.5843 90.3615 13.402C90.8255 13.2164 91.3625 13.1236 91.9723 13.1236C92.3965 13.1236 92.8026 13.1733 93.1903 13.2727C93.5814 13.3722 93.9278 13.5263 94.2294 13.7351C94.5343 13.9439 94.7746 14.2124 94.9503 14.5405C95.1259 14.8653 95.2138 15.2547 95.2138 15.7088V20.8594H93.2053V19.8004H93.1456C93.023 20.0391 92.8589 20.2495 92.6534 20.4318C92.4479 20.6108 92.201 20.7517 91.9126 20.8544C91.6243 20.9538 91.2912 21.0036 90.9134 21.0036ZM91.5199 19.5419C91.8314 19.5419 92.1065 19.4806 92.3452 19.358C92.5838 19.232 92.7711 19.063 92.907 18.8509C93.0429 18.6387 93.1108 18.3984 93.1108 18.13V17.3196C93.0445 17.3627 92.9534 17.4025 92.8374 17.4389C92.7247 17.4721 92.5971 17.5036 92.4545 17.5334C92.312 17.5599 92.1695 17.5848 92.027 17.608C91.8845 17.6278 91.7552 17.6461 91.6392 17.6626C91.3906 17.6991 91.1735 17.7571 90.9879 17.8366C90.8023 17.9162 90.6581 18.0239 90.5554 18.1598C90.4527 18.2924 90.4013 18.4581 90.4013 18.657C90.4013 18.9453 90.5057 19.1657 90.7145 19.3182C90.9266 19.4673 91.1951 19.5419 91.5199 19.5419ZM98.9748 10.6776V20.8594H96.8569V10.6776H98.9748Z" fill="#1455AC"/>
<g clip-path="url(#clip0_44_12728)">
<path d="M142.27 11.0103H135.648L141.786 1.34363H134.053L126.803 15.8436H132.506L126.803 29.377L142.27 11.0103Z" fill="#FFDD09"/>
<path d="M135.986 1.34363H134.053L126.803 15.8436H128.736L135.986 1.34363Z" fill="white"/>
<path d="M139.854 11.0098L128.254 24.7848L126.32 29.3765L141.787 11.0098H139.854Z" fill="#FD9808"/>
<path d="M126.804 29.8594C126.707 29.8594 126.61 29.8594 126.562 29.8111C126.369 29.6661 126.272 29.4244 126.369 29.2311L131.782 16.3261H126.804C126.659 16.3261 126.465 16.2294 126.369 16.0844C126.272 15.9394 126.272 15.7461 126.369 15.6011L133.619 1.10106C133.715 0.956061 133.86 0.859375 134.054 0.859375H141.787C141.98 0.859375 142.125 0.956061 142.222 1.10106C142.319 1.24606 142.319 1.43938 142.222 1.58438L136.567 10.5261H142.27C142.463 10.5261 142.608 10.6227 142.705 10.8161C142.802 11.0094 142.753 11.2027 142.657 11.3477L127.19 29.7144C127.094 29.8111 126.949 29.8594 126.804 29.8594ZM127.577 15.3594H132.507C132.652 15.3594 132.797 15.4561 132.894 15.5527C132.99 15.6977 132.99 15.8427 132.942 15.9877L128.495 26.621L141.255 11.4927H135.648C135.455 11.4927 135.31 11.396 135.213 11.251C135.117 11.106 135.117 10.9127 135.213 10.7677L140.917 1.82606H134.344L127.577 15.3594Z" fill="#FE7B1C"/>
</g>
<rect x="105.527" y="4.85938" width="58" height="20" rx="10" fill="#FF5555"/>
<path d="M115.652 11.5866H117.189V16.3097C117.189 16.84 117.063 17.304 116.809 17.7017C116.558 18.0994 116.207 18.4096 115.755 18.6321C115.302 18.8523 114.776 18.9624 114.174 18.9624C113.571 18.9624 113.043 18.8523 112.591 18.6321C112.138 18.4096 111.787 18.0994 111.536 17.7017C111.285 17.304 111.159 16.84 111.159 16.3097V11.5866H112.697V16.1783C112.697 16.4553 112.757 16.7015 112.878 16.9169C113.001 17.1323 113.174 17.3016 113.397 17.4247C113.619 17.5478 113.878 17.6094 114.174 17.6094C114.473 17.6094 114.732 17.5478 114.952 17.4247C115.175 17.3016 115.346 17.1323 115.467 16.9169C115.59 16.7015 115.652 16.4553 115.652 16.1783V11.5866ZM118.426 20.9048V13.4048H119.917V14.321H119.985C120.051 14.1742 120.147 14.0251 120.273 13.8736C120.4 13.7197 120.566 13.5919 120.77 13.4901C120.976 13.3859 121.231 13.3338 121.537 13.3338C121.934 13.3338 122.301 13.438 122.638 13.6463C122.974 13.8523 123.242 14.1636 123.444 14.5803C123.645 14.9946 123.746 15.5142 123.746 16.1392C123.746 16.7476 123.647 17.2614 123.451 17.6804C123.257 18.0971 122.992 18.4131 122.655 18.6286C122.322 18.8416 121.948 18.9482 121.533 18.9482C121.24 18.9482 120.99 18.8996 120.784 18.8026C120.58 18.7055 120.413 18.5836 120.283 18.4368C120.153 18.2876 120.054 18.1373 119.985 17.9858H119.939V20.9048H118.426ZM119.907 16.1321C119.907 16.4564 119.952 16.7393 120.042 16.9808C120.132 17.2223 120.262 17.4105 120.432 17.5455C120.603 17.678 120.81 17.7443 121.054 17.7443C121.3 17.7443 121.508 17.6768 121.679 17.5419C121.849 17.4046 121.978 17.2152 122.066 16.9737C122.156 16.7299 122.201 16.4493 122.201 16.1321C122.201 15.8172 122.157 15.5402 122.069 15.3011C121.982 15.062 121.853 14.875 121.682 14.7401C121.512 14.6051 121.302 14.5376 121.054 14.5376C120.808 14.5376 120.599 14.6027 120.429 14.733C120.261 14.8632 120.132 15.0478 120.042 15.2869C119.952 15.526 119.907 15.8078 119.907 16.1321ZM127.655 13.4048V14.5412H124.371V13.4048H127.655ZM125.116 12.098H126.629V17.1832C126.629 17.3229 126.65 17.4318 126.693 17.5099C126.736 17.5857 126.795 17.639 126.871 17.6697C126.949 17.7005 127.039 17.7159 127.14 17.7159C127.211 17.7159 127.282 17.71 127.354 17.6982C127.425 17.6839 127.479 17.6733 127.517 17.6662L127.755 18.7919C127.679 18.8156 127.573 18.8428 127.435 18.8736C127.298 18.9067 127.131 18.9268 126.934 18.9339C126.57 18.9482 126.25 18.8996 125.976 18.7884C125.703 18.6771 125.492 18.5043 125.34 18.2699C125.189 18.0355 125.114 17.7396 125.116 17.3821V12.098ZM131.047 18.9659C130.495 18.9659 130.018 18.8487 129.616 18.6143C129.215 18.3776 128.907 18.0485 128.689 17.6271C128.471 17.2034 128.362 16.7121 128.362 16.1534C128.362 15.59 128.471 15.0975 128.689 14.6761C128.907 14.2524 129.215 13.9233 129.616 13.6889C130.018 13.4522 130.495 13.3338 131.047 13.3338C131.598 13.3338 132.074 13.4522 132.474 13.6889C132.877 13.9233 133.187 14.2524 133.405 14.6761C133.622 15.0975 133.731 15.59 133.731 16.1534C133.731 16.7121 133.622 17.2034 133.405 17.6271C133.187 18.0485 132.877 18.3776 132.474 18.6143C132.074 18.8487 131.598 18.9659 131.047 18.9659ZM131.054 17.794C131.305 17.794 131.514 17.723 131.682 17.581C131.85 17.4366 131.977 17.2401 132.062 16.9915C132.15 16.7429 132.194 16.46 132.194 16.1428C132.194 15.8255 132.15 15.5426 132.062 15.294C131.977 15.0455 131.85 14.849 131.682 14.7045C131.514 14.5601 131.305 14.4879 131.054 14.4879C130.8 14.4879 130.587 14.5601 130.415 14.7045C130.244 14.849 130.115 15.0455 130.028 15.294C129.942 15.5426 129.9 15.8255 129.9 16.1428C129.9 16.46 129.942 16.7429 130.028 16.9915C130.115 17.2401 130.244 17.4366 130.415 17.581C130.587 17.723 130.8 17.794 131.054 17.794ZM137.015 18.8594V17.7514L139.604 15.3544C139.824 15.1413 140.009 14.9496 140.158 14.7791C140.31 14.6087 140.424 14.4418 140.502 14.2784C140.581 14.1127 140.62 13.9339 140.62 13.7422C140.62 13.5291 140.571 13.3456 140.474 13.1918C140.377 13.0355 140.244 12.916 140.076 12.8331C139.908 12.7479 139.718 12.7053 139.505 12.7053C139.282 12.7053 139.088 12.7502 138.922 12.8402C138.757 12.9302 138.629 13.0592 138.539 13.2273C138.449 13.3954 138.404 13.5954 138.404 13.8274H136.944C136.944 13.3516 137.052 12.9384 137.267 12.5881C137.483 12.2377 137.785 11.9666 138.173 11.7749C138.561 11.5831 139.009 11.4872 139.515 11.4872C140.036 11.4872 140.489 11.5795 140.875 11.7642C141.264 11.9465 141.565 12.1998 141.781 12.5241C141.996 12.8485 142.104 13.2202 142.104 13.6392C142.104 13.9138 142.05 14.1849 141.941 14.4524C141.834 14.7199 141.644 15.017 141.369 15.3438C141.094 15.6681 140.707 16.0575 140.208 16.5121L139.146 17.5526V17.6023H142.2V18.8594H137.015ZM146.166 19.0192C145.555 19.0168 145.029 18.8665 144.589 18.5682C144.151 18.2699 143.814 17.8378 143.577 17.272C143.343 16.7062 143.227 16.0256 143.229 15.2301C143.229 14.437 143.346 13.7611 143.58 13.2024C143.817 12.6437 144.155 12.2187 144.593 11.9276C145.033 11.634 145.557 11.4872 146.166 11.4872C146.774 11.4872 147.297 11.634 147.735 11.9276C148.176 12.2211 148.514 12.6473 148.751 13.206C148.988 13.7623 149.105 14.437 149.102 15.2301C149.102 16.0279 148.984 16.7098 148.747 17.2756C148.513 17.8414 148.177 18.2734 147.739 18.5717C147.301 18.87 146.776 19.0192 146.166 19.0192ZM146.166 17.7443C146.582 17.7443 146.915 17.5348 147.164 17.1158C147.412 16.6967 147.535 16.0682 147.533 15.2301C147.533 14.6785 147.476 14.2192 147.362 13.8523C147.251 13.4853 147.093 13.2095 146.887 13.0249C146.683 12.8402 146.443 12.7479 146.166 12.7479C145.751 12.7479 145.42 12.955 145.171 13.3693C144.923 13.7836 144.797 14.4039 144.795 15.2301C144.795 15.7888 144.851 16.2552 144.962 16.6293C145.075 17.0009 145.235 17.2803 145.441 17.4673C145.647 17.652 145.889 17.7443 146.166 17.7443ZM154.18 17.4957V17.1122C154.18 16.821 154.241 16.5535 154.364 16.3097C154.49 16.0634 154.671 15.867 154.908 15.7202C155.147 15.571 155.438 15.4964 155.781 15.4964C156.129 15.4964 156.422 15.5698 156.658 15.7166C156.897 15.8634 157.077 16.0599 157.198 16.3061C157.321 16.55 157.383 16.8187 157.383 17.1122V17.4957C157.383 17.7869 157.321 18.0556 157.198 18.3018C157.075 18.5457 156.894 18.741 156.655 18.8878C156.416 19.0369 156.125 19.1115 155.781 19.1115C155.433 19.1115 155.141 19.0369 154.904 18.8878C154.667 18.741 154.487 18.5457 154.364 18.3018C154.241 18.0556 154.18 17.7869 154.18 17.4957ZM155.213 17.1122V17.4957C155.213 17.6638 155.253 17.8224 155.334 17.9716C155.417 18.1207 155.566 18.1953 155.781 18.1953C155.997 18.1953 156.143 18.1219 156.222 17.9751C156.302 17.8284 156.342 17.6686 156.342 17.4957V17.1122C156.342 16.9394 156.304 16.7784 156.229 16.6293C156.153 16.4801 156.004 16.4055 155.781 16.4055C155.568 16.4055 155.42 16.4801 155.337 16.6293C155.254 16.7784 155.213 16.9394 155.213 17.1122ZM150.447 13.3338V12.9503C150.447 12.6567 150.51 12.388 150.636 12.1442C150.761 11.898 150.942 11.7015 151.179 11.5547C151.418 11.4079 151.707 11.3345 152.045 11.3345C152.396 11.3345 152.689 11.4079 152.926 11.5547C153.163 11.7015 153.343 11.898 153.466 12.1442C153.589 12.388 153.651 12.6567 153.651 12.9503V13.3338C153.651 13.6274 153.588 13.8961 153.462 14.1399C153.339 14.3838 153.158 14.5791 152.919 14.7259C152.682 14.8703 152.391 14.9425 152.045 14.9425C151.7 14.9425 151.407 14.8691 151.168 14.7223C150.932 14.5732 150.752 14.3778 150.629 14.1364C150.508 13.8925 150.447 13.625 150.447 13.3338ZM151.488 12.9503V13.3338C151.488 13.5066 151.528 13.6664 151.609 13.8132C151.692 13.96 151.837 14.0334 152.045 14.0334C152.263 14.0334 152.411 13.96 152.489 13.8132C152.57 13.6664 152.61 13.5066 152.61 13.3338V12.9503C152.61 12.7775 152.572 12.6165 152.496 12.4673C152.421 12.3182 152.27 12.2436 152.045 12.2436C151.835 12.2436 151.689 12.3194 151.609 12.4709C151.528 12.6224 151.488 12.7822 151.488 12.9503ZM150.916 18.8594L155.916 11.5866H156.847L151.847 18.8594H150.916Z" fill="white"/>
<defs>
<clipPath id="clip0_44_12728">
<rect width="29" height="29" fill="white" transform="translate(120.027 0.859375)"/>
</clipPath>
</defs>
</svg>
